<?xml version="1.0" standalone="no"?>
<!DOCTYPE svg PUBLIC "-//W3C//DTD SVG 20010904//EN"
 "http://www.w3.org/TR/2001/REC-SVG-20010904/DTD/svg10.dtd">
<svg version="1.0" xmlns="http://www.w3.org/2000/svg"
 width="80.000000pt" height="80.000000pt" viewBox="0 0 80.000000 80.000000"
 preserveAspectRatio="xMidYMid meet">
<metadata>
Created by potrace 1.14, written by Peter Selinger 2001-2017
</metadata>
<g transform="translate(0.000000,80.000000) scale(0.100000,-0.100000)"
fill="#000000" stroke="none">
<path d="M200 630 c-11 -11 -20 -27 -20 -36 0 -12 10 -8 40 16 22 17 40 34 40
36 0 12 -43 1 -60 -16z"/>
<path d="M233 605 l-53 -47 0 -116 0 -117 -27 -2 c-16 0 -21 2 -14 7 7 4 11
16 9 26 -3 17 -6 16 -31 -8 -23 -23 -26 -31 -17 -48 8 -15 17 -19 33 -15 21 6
22 6 3 -9 -27 -22 -33 -20 -40 9 -6 25 -20 33 -30 16 -3 -5 1 -29 10 -54 11
-32 20 -44 30 -40 8 3 14 10 14 17 0 6 10 16 22 21 13 6 28 21 34 33 8 17 13
20 18 10 3 -7 4 19 2 59 -4 88 7 104 46 66 l28 -27 0 56 c0 72 17 80 63 29
l35 -39 53 54 53 54 -22 23 -22 24 20 18 c20 18 21 18 55 -15 l35 -34 40 39
40 39 0 -73 0 -73 40 32 c22 17 40 37 40 43 0 7 -14 28 -30 47 l-29 35 -178 3
-178 3 -52 -46z m42 -62 c-21 -23 -35 -31 -36 -23 0 10 -3 8 -8 -4 -6 -17 -8
-17 -14 -4 -3 10 3 24 15 35 12 10 18 13 15 6 -4 -6 -3 -14 3 -18 6 -4 10 5
10 22 0 19 3 24 9 15 6 -10 10 -6 15 14 7 25 9 26 17 12 7 -13 2 -26 -26 -55z
m125 32 c0 -8 -9 -19 -20 -25 -21 -11 -27 -44 -11 -55 5 -3 16 3 23 14 8 12
19 17 26 12 17 -10 -22 -61 -47 -61 -43 0 -55 59 -20 104 22 28 49 35 49 11z"/>
<path d="M425 438 l-50 -53 53 50 c48 46 57 55 49 55 -1 0 -25 -24 -52 -52z"/>
<path d="M462 334 c-84 -79 -153 -147 -154 -151 -1 -4 16 -18 37 -30 l39 -21
118 110 c65 61 118 115 118 121 0 6 -11 0 -25 -13 -14 -13 -25 -19 -25 -13 0
5 11 20 25 33 14 13 25 30 25 39 0 9 -27 -12 -65 -49 -35 -35 -67 -61 -71 -58
-3 4 27 37 66 75 43 41 71 75 69 84 -3 11 -52 -28 -157 -127z"/>
<path d="M409 353 c-89 -83 -114 -110 -92 -102 18 7 196 179 191 185 -3 2 -48
-35 -99 -83z"/>
<path d="M312 418 c-7 -7 -12 -17 -12 -23 0 -17 -35 -46 -51 -43 -7 2 -15 -5
-17 -14 -2 -10 0 -18 5 -18 15 0 105 97 96 103 -6 4 -15 1 -21 -5z"/>
<path d="M509 229 c-91 -88 -99 -97 -60 -77 56 29 137 102 157 140 9 17 14 32
12 34 -3 2 -51 -42 -109 -97z"/>
<path d="M192 229 l3 -44 50 -3 50 -3 -25 26 c-14 15 -38 36 -53 47 l-28 20 3
-43z"/>
</g>
</svg>
